<svg xmlns="http://www.w3.org/2000/svg" version="1.1" xmlns:xlink="http://www.w3.org/1999/xlink" xmlns:svgjs="http://svgjs.com/svgjs" width="500" height="500"><svg xmlns="http://www.w3.org/2000/svg" viewBox="0 0 500 500" width="500" height="500"><defs></defs><g transform="matrix(1, -0, -0, 1, -0, -0)">
<g transform="matrix(1, 0, 0, 1, 0, 0)">
	<g class="artboard" transform="matrix(1, 0, 0, 1, 0, 0)">
		<path class="vector-data" d="M135.5,45.5C185.16063000011127,45.5 225.5,85.83936999988873 225.5,135.5 C225.5,185.16063000011127 185.16063000011127,225.5 135.5,225.5 C85.83936999988873,225.5 45.5,185.16063000011127 45.5,135.5 C45.5,85.83936999988873 85.83936999988873,45.5 135.5,45.5 Z" fill="none" stroke="#000000" stroke-width="18" stroke-dasharray="none" stroke-dashoffset="0" stroke-linecap="butt" stroke-linejoin="miter" stroke-miterlimit="4"></path>
		<path class="vector-data" d="M365.5,45.5C415.16063000011127,45.5 455.5,85.83936999988873 455.5,135.5 C455.5,185.16063000011127 415.16063000011127,225.5 365.5,225.5 C315.83936999988873,225.5 275.5,185.16063000011127 275.5,135.5 C275.5,85.83936999988873 315.83936999988873,45.5 365.5,45.5 Z" fill="none" stroke="#000000" stroke-width="18" stroke-dasharray="none" stroke-dashoffset="0" stroke-linecap="butt" stroke-linejoin="miter" stroke-miterlimit="4"></path>
		<path class="vector-data" d="M135.5,275.5C185.16063000011127,275.5 225.5,315.83936999988873 225.5,365.5 C225.5,415.16063000011127 185.16063000011127,455.5 135.5,455.5 C85.83936999988873,455.5 45.5,415.16063000011127 45.5,365.5 C45.5,315.83936999988873 85.83936999988873,275.5 135.5,275.5 Z" fill="none" stroke="#000000" stroke-width="18" stroke-dasharray="none" stroke-dashoffset="0" stroke-linecap="butt" stroke-linejoin="miter" stroke-miterlimit="4"></path>
		<path class="vector-data" d="M365.5,275.5C415.16063000011127,275.5 455.5,315.83936999988873 455.5,365.5 C455.5,415.16063000011127 415.16063000011127,455.5 365.5,455.5 C315.83936999988873,455.5 275.5,415.16063000011127 275.5,365.5 C275.5,315.83936999988873 315.83936999988873,275.5 365.5,275.5 Z" fill="none" stroke="#000000" stroke-width="18" stroke-dasharray="none" stroke-dashoffset="0" stroke-linecap="butt" stroke-linejoin="miter" stroke-miterlimit="4"></path>
		<path class="vector-data" d="M135.5,345.5C146.53569555558028,345.5 155.5,354.4643044444197 155.5,365.5 C155.5,376.5356955555803 146.53569555558028,385.5 135.5,385.5 C124.46430444441972,385.5 115.5,376.5356955555803 115.5,365.5 C115.5,354.4643044444197 124.46430444441972,345.5 135.5,345.5 Z" fill="#000000" stroke="#000000" stroke-width="5" stroke-dasharray="none" stroke-dashoffset="0" stroke-linecap="butt" stroke-linejoin="miter" stroke-miterlimit="4"></path>
		<path class="vector-data" d="M45.5,128C45.5,128 225.5,128 225.5,128 C225.5,128 225.5,143 225.5,143 C225.5,143 45.5,143 45.5,143 C45.5,143 45.5,128 45.5,128 Z" fill="#000000" stroke="#000000" stroke-width="5" stroke-dasharray="none" stroke-dashoffset="0" stroke-linecap="butt" stroke-linejoin="miter" stroke-miterlimit="4"></path>
		<path class="vector-data" d="M128,45.5C128,45.5 143,45.5 143,45.5 C143,45.5 143,225.5 143,225.5 C143,225.5 128,225.5 128,225.5 C128,225.5 128,45.5 128,45.5 Z" fill="#000000" stroke="#000000" stroke-width="5" stroke-dasharray="none" stroke-dashoffset="0" stroke-linecap="butt" stroke-linejoin="miter" stroke-miterlimit="4"></path>
		<path class="vector-data" d="M434.4429115135151,77.16369096317781C434.4429115135151,77.16369096317781 307.16369014104185,204.44291081786162 307.16369014104185,204.44291081786162 C307.16369014104185,204.44291081786162 296.5570884864849,193.83630903682217 296.5570884864849,193.83630903682217 C296.5570884864849,193.83630903682217 423.83630985895815,66.55708918213837 423.83630985895815,66.55708918213837 C423.83630985895815,66.55708918213837 434.4429115135151,77.16369096317781 434.4429115135151,77.16369096317781 Z" fill="#000000" stroke="#000000" stroke-width="5" stroke-dasharray="none" stroke-dashoffset="0" stroke-linecap="butt" stroke-linejoin="miter" stroke-miterlimit="4"></path>
		<path class="vector-data" d="M434.4429115135151,307.1636909631778C434.4429115135151,307.1636909631778 307.16369014104185,434.4429108178616 307.16369014104185,434.4429108178616 C307.16369014104185,434.4429108178616 296.5570884864849,423.8363090368222 296.5570884864849,423.8363090368222 C296.5570884864849,423.8363090368222 423.83630985895815,296.5570891821384 423.83630985895815,296.5570891821384 C423.83630985895815,296.5570891821384 434.4429115135151,307.1636909631778 434.4429115135151,307.1636909631778 Z" fill="#000000" stroke="#000000" stroke-width="5" stroke-dasharray="none" stroke-dashoffset="0" stroke-linecap="butt" stroke-linejoin="miter" stroke-miterlimit="4"></path>
		<path class="vector-data" d="M307.1636920589051,296.5570875593311C307.1636920589051,296.5570875593311 434.4429098907078,423.8363109546854 434.4429098907078,423.8363109546854 C434.4429098907078,423.8363109546854 423.8363079410949,434.442912440669 423.8363079410949,434.442912440669 C423.8363079410949,434.442912440669 296.55709010929223,307.16368904531464 296.55709010929223,307.16368904531464 C296.55709010929223,307.16368904531464 307.1636920589051,296.5570875593311 307.1636920589051,296.5570875593311 Z" fill="#000000" stroke="#000000" stroke-width="5" stroke-dasharray="none" stroke-dashoffset="0" stroke-linecap="butt" stroke-linejoin="miter" stroke-miterlimit="4"></path>
	</g>
</g></g></svg><style>@media (prefers-color-scheme: light) { :root { filter: none; } }
@media (prefers-color-scheme: dark) { :root { filter: invert(100%); } }
</style></svg>