<svg xmlns="http://www.w3.org/2000/svg" height="45" viewBox="0 -960 960 960" width="45"><path fill="currentColor" d="M490.769-580.653v201.261q0 9.814 9.135 13.468 9.134 3.654 16.269-2.481l97.475-89.475q9.466-9.648 9.466-22.319 0-12.672-9.346-21.993l-97.606-89.414q-6.947-6.124-16.17-2.441-9.223 3.683-9.223 13.394Zm-264.23 409.382q-22.798 0-39.033-16.235-16.235-16.235-16.235-39.033v-506.922q0-22.798 16.235-39.033 16.235-16.235 39.033-16.235h506.922q22.798 0 39.033 16.235 16.235 16.235 16.235 39.033v506.922q0 22.798-16.235 39.033-16.235 16.235-39.033 16.235H226.539Zm154.998-47.96h346.924q4.615 0 8.462-3.846 3.846-3.847 3.846-8.462v-496.922q0-4.615-3.846-8.462-3.847-3.846-8.462-3.846H381.537v521.538Z"/></svg>