<svg xmlns="http://www.w3.org/2000/svg" height="40" viewBox="0 -960 960 960" width="40"><path fill="currentColor" d="M613.768-379.347v-201.261q0-9.814-9.134-13.468-9.135-3.654-16.269 2.481l-97.346 89.346q-9.596 9.742-9.596 22.413 0 12.672 9.538 21.836l97.414 89.606q6.948 6.124 16.17 2.441 9.223-3.683 9.223-13.394ZM226.539-171.271q-22.798 0-39.033-16.235-16.235-16.235-16.235-39.033v-506.922q0-22.798 16.235-39.033 16.235-16.235 39.033-16.235h506.922q22.798 0 39.033 16.235 16.235 16.235 16.235 39.033v506.922q0 22.798-16.235 39.033-16.235 16.235-39.033 16.235H226.539Zm154.998-47.96h346.924q4.615 0 8.462-3.846 3.846-3.847 3.846-8.462v-496.922q0-4.615-3.846-8.462-3.847-3.846-8.462-3.846H381.537v521.538Z"/></svg>